<?xml version="1.0" encoding="utf-8" standalone="no"?>
<!DOCTYPE svg PUBLIC "-//W3C//DTD SVG 1.1//EN"
  "http://www.w3.org/Graphics/SVG/1.1/DTD/svg11.dtd">
<!-- Created with matplotlib (https://matplotlib.org/) -->
<svg height="309.30825pt" version="1.1" viewBox="0 0 597.865312 309.30825" width="597.865312pt" xmlns="http://www.w3.org/2000/svg" xmlns:xlink="http://www.w3.org/1999/xlink">
 <metadata>
  <rdf:RDF xmlns:cc="http://creativecommons.org/ns#" xmlns:dc="http://purl.org/dc/elements/1.1/" xmlns:rdf="http://www.w3.org/1999/02/22-rdf-syntax-ns#">
   <cc:Work>
    <dc:type rdf:resource="http://purl.org/dc/dcmitype/StillImage"/>
    <dc:date>2021-02-08T09:30:08.115131</dc:date>
    <dc:format>image/svg+xml</dc:format>
    <dc:creator>
     <cc:Agent>
      <dc:title>Matplotlib v3.3.4, https://matplotlib.org/</dc:title>
     </cc:Agent>
    </dc:creator>
   </cc:Work>
  </rdf:RDF>
 </metadata>
 <defs>
  <style type="text/css">*{stroke-linecap:butt;stroke-linejoin:round;}</style>
 </defs>
 <g id="figure_1">
  <g id="patch_1">
   <path d="M 0 309.30825 
L 597.865312 309.30825 
L 597.865312 0 
L 0 0 
z
" style="fill:#ffffff;"/>
  </g>
  <g id="axes_1">
   <g id="patch_2">
    <path d="M 20.878125 288.430125 
L 377.998125 288.430125 
L 377.998125 22.318125 
L 20.878125 22.318125 
z
" style="fill:#ffffff;"/>
   </g>
   <g id="PathCollection_1">
    <defs>
     <path d="M 0 6.384424 
C 1.693169 6.384424 3.317218 5.711721 4.514469 4.514469 
C 5.711721 3.317218 6.384424 1.693169 6.384424 -0 
C 6.384424 -1.693169 5.711721 -3.317218 4.514469 -4.514469 
C 3.317218 -5.711721 1.693169 -6.384424 0 -6.384424 
C -1.693169 -6.384424 -3.317218 -5.711721 -4.514469 -4.514469 
C -5.711721 -3.317218 -6.384424 -1.693169 -6.384424 0 
C -6.384424 1.693169 -5.711721 3.317218 -4.514469 4.514469 
C -3.317218 5.711721 -1.693169 6.384424 0 6.384424 
z
" id="C0_0_86e9b57a86"/>
    </defs>
    <g clip-path="url(#pc1b48e7ba4)">
     <use style="fill:#1f77b4;" x="262.924768" xlink:href="#C0_0_86e9b57a86" y="119.216984"/>
    </g>
    <g clip-path="url(#pc1b48e7ba4)">
     <use style="fill:#1f77b4;" x="264.747812" xlink:href="#C0_0_86e9b57a86" y="134.012483"/>
    </g>
    <g clip-path="url(#pc1b48e7ba4)">
     <use style="fill:#1f77b4;" x="258.517722" xlink:href="#C0_0_86e9b57a86" y="120.530766"/>
    </g>
    <g clip-path="url(#pc1b48e7ba4)">
     <use style="fill:#1f77b4;" x="257.980272" xlink:href="#C0_0_86e9b57a86" y="122.376275"/>
    </g>
    <g clip-path="url(#pc1b48e7ba4)">
     <use style="fill:#1f77b4;" x="269.199989" xlink:href="#C0_0_86e9b57a86" y="128.934145"/>
    </g>
    <g clip-path="url(#pc1b48e7ba4)">
     <use style="fill:#1f77b4;" x="262.356065" xlink:href="#C0_0_86e9b57a86" y="128.095998"/>
    </g>
    <g clip-path="url(#pc1b48e7ba4)">
     <use style="fill:#1f77b4;" x="269.700196" xlink:href="#C0_0_86e9b57a86" y="132.272046"/>
    </g>
    <g clip-path="url(#pc1b48e7ba4)">
     <use style="fill:#1f77b4;" x="261.102389" xlink:href="#C0_0_86e9b57a86" y="118.069505"/>
    </g>
    <g clip-path="url(#pc1b48e7ba4)">
     <use style="fill:#1f77b4;" x="266.67973" xlink:href="#C0_0_86e9b57a86" y="130.476759"/>
    </g>
    <g clip-path="url(#pc1b48e7ba4)">
     <use style="fill:#1f77b4;" x="263.445887" xlink:href="#C0_0_86e9b57a86" y="131.242015"/>
    </g>
    <g clip-path="url(#pc1b48e7ba4)">
     <use style="fill:#1f77b4;" x="266.799915" xlink:href="#C0_0_86e9b57a86" y="123.535112"/>
    </g>
    <g clip-path="url(#pc1b48e7ba4)">
     <use style="fill:#1f77b4;" x="261.698259" xlink:href="#C0_0_86e9b57a86" y="128.616835"/>
    </g>
    <g clip-path="url(#pc1b48e7ba4)">
     <use style="fill:#1f77b4;" x="269.571513" xlink:href="#C0_0_86e9b57a86" y="124.21083"/>
    </g>
    <g clip-path="url(#pc1b48e7ba4)">
     <use style="fill:#1f77b4;" x="263.333439" xlink:href="#C0_0_86e9b57a86" y="120.141382"/>
    </g>
    <g clip-path="url(#pc1b48e7ba4)">
     <use style="fill:#1f77b4;" x="259.250943" xlink:href="#C0_0_86e9b57a86" y="127.423928"/>
    </g>
    <g clip-path="url(#pc1b48e7ba4)">
     <use style="fill:#1f77b4;" x="265.410275" xlink:href="#C0_0_86e9b57a86" y="123.133644"/>
    </g>
    <g clip-path="url(#pc1b48e7ba4)">
     <use style="fill:#1f77b4;" x="262.133374" xlink:href="#C0_0_86e9b57a86" y="122.386095"/>
    </g>
    <g clip-path="url(#pc1b48e7ba4)">
     <use style="fill:#1f77b4;" x="268.980016" xlink:href="#C0_0_86e9b57a86" y="131.52538"/>
    </g>
    <g clip-path="url(#pc1b48e7ba4)">
     <use style="fill:#1f77b4;" x="263.623028" xlink:href="#C0_0_86e9b57a86" y="129.518915"/>
    </g>
    <g clip-path="url(#pc1b48e7ba4)">
     <use style="fill:#ff7f0e;" x="349.777177" xlink:href="#C0_0_86e9b57a86" y="38.73362"/>
    </g>
    <g clip-path="url(#pc1b48e7ba4)">
     <use style="fill:#ff7f0e;" x="347.854517" xlink:href="#C0_0_86e9b57a86" y="37.338236"/>
    </g>
    <g clip-path="url(#pc1b48e7ba4)">
     <use style="fill:#ff7f0e;" x="348.467116" xlink:href="#C0_0_86e9b57a86" y="45.471729"/>
    </g>
    <g clip-path="url(#pc1b48e7ba4)">
     <use style="fill:#ff7f0e;" x="345.422619" xlink:href="#C0_0_86e9b57a86" y="38.309005"/>
    </g>
    <g clip-path="url(#pc1b48e7ba4)">
     <use style="fill:#ff7f0e;" x="349.524563" xlink:href="#C0_0_86e9b57a86" y="48.093752"/>
    </g>
    <g clip-path="url(#pc1b48e7ba4)">
     <use style="fill:#ff7f0e;" x="354.709923" xlink:href="#C0_0_86e9b57a86" y="35.049402"/>
    </g>
    <g clip-path="url(#pc1b48e7ba4)">
     <use style="fill:#ff7f0e;" x="345.194302" xlink:href="#C0_0_86e9b57a86" y="44.279312"/>
    </g>
    <g clip-path="url(#pc1b48e7ba4)">
     <use style="fill:#ff7f0e;" x="345.903189" xlink:href="#C0_0_86e9b57a86" y="44.770583"/>
    </g>
    <g clip-path="url(#pc1b48e7ba4)">
     <use style="fill:#ff7f0e;" x="351.814566" xlink:href="#C0_0_86e9b57a86" y="44.63398"/>
    </g>
    <g clip-path="url(#pc1b48e7ba4)">
     <use style="fill:#ff7f0e;" x="350.952547" xlink:href="#C0_0_86e9b57a86" y="41.837895"/>
    </g>
    <g clip-path="url(#pc1b48e7ba4)">
     <use style="fill:#ff7f0e;" x="356.759479" xlink:href="#C0_0_86e9b57a86" y="36.008409"/>
    </g>
    <g clip-path="url(#pc1b48e7ba4)">
     <use style="fill:#ff7f0e;" x="357.80917" xlink:href="#C0_0_86e9b57a86" y="44.874665"/>
    </g>
    <g clip-path="url(#pc1b48e7ba4)">
     <use style="fill:#ff7f0e;" x="355.339765" xlink:href="#C0_0_86e9b57a86" y="36.158517"/>
    </g>
    <g clip-path="url(#pc1b48e7ba4)">
     <use style="fill:#ff7f0e;" x="356.295353" xlink:href="#C0_0_86e9b57a86" y="43.123967"/>
    </g>
    <g clip-path="url(#pc1b48e7ba4)">
     <use style="fill:#ff7f0e;" x="347.55048" xlink:href="#C0_0_86e9b57a86" y="41.876238"/>
    </g>
    <g clip-path="url(#pc1b48e7ba4)">
     <use style="fill:#ff7f0e;" x="354.858758" xlink:href="#C0_0_86e9b57a86" y="44.393596"/>
    </g>
    <g clip-path="url(#pc1b48e7ba4)">
     <use style="fill:#ff7f0e;" x="361.765398" xlink:href="#C0_0_86e9b57a86" y="42.255043"/>
    </g>
    <g clip-path="url(#pc1b48e7ba4)">
     <use style="fill:#ff7f0e;" x="354.282184" xlink:href="#C0_0_86e9b57a86" y="49.226035"/>
    </g>
    <g clip-path="url(#pc1b48e7ba4)">
     <use style="fill:#ff7f0e;" x="359.022619" xlink:href="#C0_0_86e9b57a86" y="39.862611"/>
    </g>
    <g clip-path="url(#pc1b48e7ba4)">
     <use style="fill:#ff7f0e;" x="359.936689" xlink:href="#C0_0_86e9b57a86" y="44.509387"/>
    </g>
    <g clip-path="url(#pc1b48e7ba4)">
     <use style="fill:#ff7f0e;" x="361.485941" xlink:href="#C0_0_86e9b57a86" y="39.563062"/>
    </g>
    <g clip-path="url(#pc1b48e7ba4)">
     <use style="fill:#ff7f0e;" x="350.951388" xlink:href="#C0_0_86e9b57a86" y="34.414125"/>
    </g>
    <g clip-path="url(#pc1b48e7ba4)">
     <use style="fill:#ff7f0e;" x="359.90361" xlink:href="#C0_0_86e9b57a86" y="34.928403"/>
    </g>
    <g clip-path="url(#pc1b48e7ba4)">
     <use style="fill:#9467bd;" x="48.356" xlink:href="#C0_0_86e9b57a86" y="264.301625"/>
    </g>
    <g clip-path="url(#pc1b48e7ba4)">
     <use style="fill:#9467bd;" x="50.725298" xlink:href="#C0_0_86e9b57a86" y="263.328742"/>
    </g>
    <g clip-path="url(#pc1b48e7ba4)">
     <use style="fill:#9467bd;" x="47.065647" xlink:href="#C0_0_86e9b57a86" y="268.340522"/>
    </g>
    <g clip-path="url(#pc1b48e7ba4)">
     <use style="fill:#9467bd;" x="55.789457" xlink:href="#C0_0_86e9b57a86" y="265.071993"/>
    </g>
    <g clip-path="url(#pc1b48e7ba4)">
     <use style="fill:#9467bd;" x="52.613325" xlink:href="#C0_0_86e9b57a86" y="268.930747"/>
    </g>
    <g clip-path="url(#pc1b48e7ba4)">
     <use style="fill:#9467bd;" x="61.251329" xlink:href="#C0_0_86e9b57a86" y="259.266687"/>
    </g>
    <g clip-path="url(#pc1b48e7ba4)">
     <use style="fill:#9467bd;" x="43.930194" xlink:href="#C0_0_86e9b57a86" y="273.107952"/>
    </g>
    <g clip-path="url(#pc1b48e7ba4)">
     <use style="fill:#9467bd;" x="41.305609" xlink:href="#C0_0_86e9b57a86" y="266.216587"/>
    </g>
    <g clip-path="url(#pc1b48e7ba4)">
     <use style="fill:#9467bd;" x="40.254966" xlink:href="#C0_0_86e9b57a86" y="253.961492"/>
    </g>
    <g clip-path="url(#pc1b48e7ba4)">
     <use style="fill:#9467bd;" x="45.069445" xlink:href="#C0_0_86e9b57a86" y="271.078534"/>
    </g>
    <g clip-path="url(#pc1b48e7ba4)">
     <use style="fill:#9467bd;" x="47.834046" xlink:href="#C0_0_86e9b57a86" y="248.614689"/>
    </g>
    <g clip-path="url(#pc1b48e7ba4)">
     <use style="fill:#9467bd;" x="42.872703" xlink:href="#C0_0_86e9b57a86" y="259.68625"/>
    </g>
    <g clip-path="url(#pc1b48e7ba4)">
     <use style="fill:#9467bd;" x="41.097773" xlink:href="#C0_0_86e9b57a86" y="254.732742"/>
    </g>
    <g clip-path="url(#pc1b48e7ba4)">
     <use style="fill:#9467bd;" x="54.954146" xlink:href="#C0_0_86e9b57a86" y="259.504278"/>
    </g>
    <g clip-path="url(#pc1b48e7ba4)">
     <use style="fill:#9467bd;" x="54.403791" xlink:href="#C0_0_86e9b57a86" y="253.26246"/>
    </g>
    <g clip-path="url(#pc1b48e7ba4)">
     <use style="fill:#9467bd;" x="37.958061" xlink:href="#C0_0_86e9b57a86" y="252.541281"/>
    </g>
    <g clip-path="url(#pc1b48e7ba4)">
     <use style="fill:#9467bd;" x="53.611919" xlink:href="#C0_0_86e9b57a86" y="261.381544"/>
    </g>
    <g clip-path="url(#pc1b48e7ba4)">
     <use style="fill:#9467bd;" x="55.65733" xlink:href="#C0_0_86e9b57a86" y="270.641408"/>
    </g>
    <g clip-path="url(#pc1b48e7ba4)">
     <use style="fill:#9467bd;" x="47.349998" xlink:href="#C0_0_86e9b57a86" y="253.877038"/>
    </g>
    <g clip-path="url(#pc1b48e7ba4)">
     <use style="fill:#9467bd;" x="50.85282" xlink:href="#C0_0_86e9b57a86" y="275.053229"/>
    </g>
    <g clip-path="url(#pc1b48e7ba4)">
     <use style="fill:#9467bd;" x="37.388122" xlink:href="#C0_0_86e9b57a86" y="264.459454"/>
    </g>
    <g clip-path="url(#pc1b48e7ba4)">
     <use style="fill:#9467bd;" x="45.395014" xlink:href="#C0_0_86e9b57a86" y="260.271542"/>
    </g>
    <g clip-path="url(#pc1b48e7ba4)">
     <use style="fill:#9467bd;" x="49.356483" xlink:href="#C0_0_86e9b57a86" y="251.77772"/>
    </g>
    <g clip-path="url(#pc1b48e7ba4)">
     <use style="fill:#9467bd;" x="37.110852" xlink:href="#C0_0_86e9b57a86" y="268.017395"/>
    </g>
    <g clip-path="url(#pc1b48e7ba4)">
     <use style="fill:#9467bd;" x="49.669092" xlink:href="#C0_0_86e9b57a86" y="276.334125"/>
    </g>
    <g clip-path="url(#pc1b48e7ba4)">
     <use style="fill:#9467bd;" x="66.668305" xlink:href="#C0_0_86e9b57a86" y="263.216583"/>
    </g>
    <g clip-path="url(#pc1b48e7ba4)">
     <use style="fill:#9467bd;" x="56.83954" xlink:href="#C0_0_86e9b57a86" y="261.721496"/>
    </g>
    <g clip-path="url(#pc1b48e7ba4)">
     <use style="fill:#9467bd;" x="41.914867" xlink:href="#C0_0_86e9b57a86" y="264.265107"/>
    </g>
    <g clip-path="url(#pc1b48e7ba4)">
     <use style="fill:#9467bd;" x="53.960998" xlink:href="#C0_0_86e9b57a86" y="274.504364"/>
    </g>
    <g clip-path="url(#pc1b48e7ba4)">
     <use style="fill:#9467bd;" x="40.849208" xlink:href="#C0_0_86e9b57a86" y="265.329471"/>
    </g>
    <g clip-path="url(#pc1b48e7ba4)">
     <use style="fill:#9467bd;" x="40.775908" xlink:href="#C0_0_86e9b57a86" y="248.660703"/>
    </g>
    <g clip-path="url(#pc1b48e7ba4)">
     <use style="fill:#9467bd;" x="49.418936" xlink:href="#C0_0_86e9b57a86" y="256.783689"/>
    </g>
    <g clip-path="url(#pc1b48e7ba4)">
     <use style="fill:#9467bd;" x="38.603893" xlink:href="#C0_0_86e9b57a86" y="258.610108"/>
    </g>
    <g clip-path="url(#pc1b48e7ba4)">
     <use style="fill:#8c564b;" x="88.369761" xlink:href="#C0_0_86e9b57a86" y="244.133694"/>
    </g>
    <g clip-path="url(#pc1b48e7ba4)">
     <use style="fill:#8c564b;" x="56.286468" xlink:href="#C0_0_86e9b57a86" y="245.203326"/>
    </g>
    <g clip-path="url(#pc1b48e7ba4)">
     <use style="fill:#8c564b;" x="69.329547" xlink:href="#C0_0_86e9b57a86" y="265.360334"/>
    </g>
    <g clip-path="url(#pc1b48e7ba4)">
     <use style="fill:#8c564b;" x="60.689313" xlink:href="#C0_0_86e9b57a86" y="235.773064"/>
    </g>
    <g clip-path="url(#pc1b48e7ba4)">
     <use style="fill:#8c564b;" x="74.291553" xlink:href="#C0_0_86e9b57a86" y="262.004984"/>
    </g>
    <g clip-path="url(#pc1b48e7ba4)">
     <use style="fill:#8c564b;" x="51.985714" xlink:href="#C0_0_86e9b57a86" y="226.370022"/>
    </g>
    <g clip-path="url(#pc1b48e7ba4)">
     <use style="fill:#8c564b;" x="57.43352" xlink:href="#C0_0_86e9b57a86" y="245.849865"/>
    </g>
    <g clip-path="url(#pc1b48e7ba4)">
     <use style="fill:#8c564b;" x="67.247376" xlink:href="#C0_0_86e9b57a86" y="254.312689"/>
    </g>
    <g clip-path="url(#pc1b48e7ba4)">
     <use style="fill:#8c564b;" x="53.380098" xlink:href="#C0_0_86e9b57a86" y="241.292956"/>
    </g>
    <g clip-path="url(#pc1b48e7ba4)">
     <use style="fill:#8c564b;" x="57.264642" xlink:href="#C0_0_86e9b57a86" y="235.39117"/>
    </g>
    <g clip-path="url(#pc1b48e7ba4)">
     <use style="fill:#8c564b;" x="57.401794" xlink:href="#C0_0_86e9b57a86" y="247.370913"/>
    </g>
    <g clip-path="url(#pc1b48e7ba4)">
     <use style="fill:#8c564b;" x="56.926602" xlink:href="#C0_0_86e9b57a86" y="222.798017"/>
    </g>
    <g clip-path="url(#pc1b48e7ba4)">
     <use style="fill:#8c564b;" x="58.674171" xlink:href="#C0_0_86e9b57a86" y="239.679399"/>
    </g>
    <g clip-path="url(#pc1b48e7ba4)">
     <use style="fill:#8c564b;" x="51.771395" xlink:href="#C0_0_86e9b57a86" y="239.441407"/>
    </g>
    <g clip-path="url(#pc1b48e7ba4)">
     <use style="fill:#8c564b;" x="61.542201" xlink:href="#C0_0_86e9b57a86" y="224.843209"/>
    </g>
    <g clip-path="url(#pc1b48e7ba4)">
     <use style="fill:#8c564b;" x="63.341988" xlink:href="#C0_0_86e9b57a86" y="253.174514"/>
    </g>
    <g clip-path="url(#pc1b48e7ba4)">
     <use style="fill:#8c564b;" x="66.174447" xlink:href="#C0_0_86e9b57a86" y="255.121873"/>
    </g>
    <g clip-path="url(#pc1b48e7ba4)">
     <use style="fill:#8c564b;" x="83.490643" xlink:href="#C0_0_86e9b57a86" y="228.353456"/>
    </g>
    <g clip-path="url(#pc1b48e7ba4)">
     <use style="fill:#8c564b;" x="64.99089" xlink:href="#C0_0_86e9b57a86" y="244.310087"/>
    </g>
    <g clip-path="url(#pc1b48e7ba4)">
     <use style="fill:#8c564b;" x="60.949915" xlink:href="#C0_0_86e9b57a86" y="252.038948"/>
    </g>
    <g clip-path="url(#pc1b48e7ba4)">
     <use style="fill:#8c564b;" x="58.579798" xlink:href="#C0_0_86e9b57a86" y="253.181988"/>
    </g>
    <g clip-path="url(#pc1b48e7ba4)">
     <use style="fill:#8c564b;" x="64.875426" xlink:href="#C0_0_86e9b57a86" y="218.530509"/>
    </g>
    <g clip-path="url(#pc1b48e7ba4)">
     <use style="fill:#8c564b;" x="73.448223" xlink:href="#C0_0_86e9b57a86" y="240.975382"/>
    </g>
    <g clip-path="url(#pc1b48e7ba4)">
     <use style="fill:#8c564b;" x="46.500259" xlink:href="#C0_0_86e9b57a86" y="234.637288"/>
    </g>
    <g clip-path="url(#pc1b48e7ba4)">
     <use style="fill:#8c564b;" x="70.155854" xlink:href="#C0_0_86e9b57a86" y="259.687859"/>
    </g>
    <g clip-path="url(#pc1b48e7ba4)">
     <use style="fill:#8c564b;" x="50.723586" xlink:href="#C0_0_86e9b57a86" y="240.437752"/>
    </g>
    <g clip-path="url(#pc1b48e7ba4)">
     <use style="fill:#8c564b;" x="63.199617" xlink:href="#C0_0_86e9b57a86" y="237.228098"/>
    </g>
    <g clip-path="url(#pc1b48e7ba4)">
     <use style="fill:#8c564b;" x="53.205932" xlink:href="#C0_0_86e9b57a86" y="223.803033"/>
    </g>
    <g clip-path="url(#pc1b48e7ba4)">
     <use style="fill:#8c564b;" x="63.770535" xlink:href="#C0_0_86e9b57a86" y="240.525978"/>
    </g>
    <g clip-path="url(#pc1b48e7ba4)">
     <use style="fill:#8c564b;" x="60.453234" xlink:href="#C0_0_86e9b57a86" y="248.235846"/>
    </g>
    <g clip-path="url(#pc1b48e7ba4)">
     <use style="fill:#8c564b;" x="70.74539" xlink:href="#C0_0_86e9b57a86" y="219.573122"/>
    </g>
    <g clip-path="url(#pc1b48e7ba4)">
     <use style="fill:#8c564b;" x="52.799242" xlink:href="#C0_0_86e9b57a86" y="234.426678"/>
    </g>
    <g clip-path="url(#pc1b48e7ba4)">
     <use style="fill:#8c564b;" x="55.956356" xlink:href="#C0_0_86e9b57a86" y="227.009483"/>
    </g>
    <g clip-path="url(#pc1b48e7ba4)">
     <use style="fill:#8c564b;" x="67.592236" xlink:href="#C0_0_86e9b57a86" y="250.96852"/>
    </g>
    <g clip-path="url(#pc1b48e7ba4)">
     <use style="fill:#d62728;" x="83.977073" xlink:href="#C0_0_86e9b57a86" y="251.824418"/>
    </g>
    <g clip-path="url(#pc1b48e7ba4)">
     <use style="fill:#d62728;" x="89.266664" xlink:href="#C0_0_86e9b57a86" y="246.793279"/>
    </g>
    <g clip-path="url(#pc1b48e7ba4)">
     <use style="fill:#d62728;" x="81.217142" xlink:href="#C0_0_86e9b57a86" y="239.419395"/>
    </g>
    <g clip-path="url(#pc1b48e7ba4)">
     <use style="fill:#d62728;" x="79.912518" xlink:href="#C0_0_86e9b57a86" y="244.773373"/>
    </g>
    <g clip-path="url(#pc1b48e7ba4)">
     <use style="fill:#d62728;" x="80.018659" xlink:href="#C0_0_86e9b57a86" y="247.025888"/>
    </g>
    <g clip-path="url(#pc1b48e7ba4)">
     <use style="fill:#d62728;" x="84.233317" xlink:href="#C0_0_86e9b57a86" y="248.618482"/>
    </g>
    <g clip-path="url(#pc1b48e7ba4)">
     <use style="fill:#d62728;" x="77.654288" xlink:href="#C0_0_86e9b57a86" y="239.895522"/>
    </g>
    <g clip-path="url(#pc1b48e7ba4)">
     <use style="fill:#d62728;" x="75.482669" xlink:href="#C0_0_86e9b57a86" y="244.743801"/>
    </g>
    <g clip-path="url(#pc1b48e7ba4)">
     <use style="fill:#d62728;" x="72.815185" xlink:href="#C0_0_86e9b57a86" y="239.17815"/>
    </g>
    <g clip-path="url(#pc1b48e7ba4)">
     <use style="fill:#d62728;" x="65.488626" xlink:href="#C0_0_86e9b57a86" y="240.741783"/>
    </g>
    <g clip-path="url(#pc1b48e7ba4)">
     <use style="fill:#d62728;" x="70.136144" xlink:href="#C0_0_86e9b57a86" y="235.958149"/>
    </g>
    <g clip-path="url(#pc1b48e7ba4)">
     <use style="fill:#d62728;" x="88.777957" xlink:href="#C0_0_86e9b57a86" y="246.36269"/>
    </g>
    <g clip-path="url(#pc1b48e7ba4)">
     <use style="fill:#d62728;" x="78.35348" xlink:href="#C0_0_86e9b57a86" y="247.678614"/>
    </g>
    <g clip-path="url(#pc1b48e7ba4)">
     <use style="fill:#d62728;" x="72.260497" xlink:href="#C0_0_86e9b57a86" y="245.756657"/>
    </g>
    <g clip-path="url(#pc1b48e7ba4)">
     <use style="fill:#d62728;" x="55.835161" xlink:href="#C0_0_86e9b57a86" y="237.633093"/>
    </g>
    <g clip-path="url(#pc1b48e7ba4)">
     <use style="fill:#d62728;" x="69.290209" xlink:href="#C0_0_86e9b57a86" y="237.588808"/>
    </g>
    <g clip-path="url(#pc1b48e7ba4)">
     <use style="fill:#d62728;" x="60.674558" xlink:href="#C0_0_86e9b57a86" y="232.193641"/>
    </g>
    <g clip-path="url(#pc1b48e7ba4)">
     <use style="fill:#d62728;" x="84.174698" xlink:href="#C0_0_86e9b57a86" y="258.473317"/>
    </g>
    <g clip-path="url(#pc1b48e7ba4)">
     <use style="fill:#d62728;" x="77.655067" xlink:href="#C0_0_86e9b57a86" y="240.450622"/>
    </g>
    <g clip-path="url(#pc1b48e7ba4)">
     <use style="fill:#d62728;" x="87.306643" xlink:href="#C0_0_86e9b57a86" y="258.739834"/>
    </g>
    <g clip-path="url(#pc1b48e7ba4)">
     <use style="fill:#d62728;" x="75.366899" xlink:href="#C0_0_86e9b57a86" y="256.878307"/>
    </g>
    <g clip-path="url(#pc1b48e7ba4)">
     <use style="fill:#d62728;" x="86.204863" xlink:href="#C0_0_86e9b57a86" y="262.299545"/>
    </g>
    <g clip-path="url(#pc1b48e7ba4)">
     <use style="fill:#d62728;" x="79.19624" xlink:href="#C0_0_86e9b57a86" y="252.463004"/>
    </g>
    <g clip-path="url(#pc1b48e7ba4)">
     <use style="fill:#d62728;" x="59.756461" xlink:href="#C0_0_86e9b57a86" y="238.470307"/>
    </g>
    <g clip-path="url(#pc1b48e7ba4)">
     <use style="fill:#d62728;" x="62.29325" xlink:href="#C0_0_86e9b57a86" y="231.677894"/>
    </g>
    <g clip-path="url(#pc1b48e7ba4)">
     <use style="fill:#d62728;" x="86.001107" xlink:href="#C0_0_86e9b57a86" y="255.54834"/>
    </g>
    <g clip-path="url(#pc1b48e7ba4)">
     <use style="fill:#d62728;" x="65.319862" xlink:href="#C0_0_86e9b57a86" y="231.186126"/>
    </g>
    <g clip-path="url(#pc1b48e7ba4)">
     <use style="fill:#d62728;" x="66.527679" xlink:href="#C0_0_86e9b57a86" y="247.688342"/>
    </g>
    <g clip-path="url(#pc1b48e7ba4)">
     <use style="fill:#d62728;" x="54.943013" xlink:href="#C0_0_86e9b57a86" y="244.647956"/>
    </g>
    <g clip-path="url(#pc1b48e7ba4)">
     <use style="fill:#d62728;" x="71.995045" xlink:href="#C0_0_86e9b57a86" y="248.508911"/>
    </g>
    <g clip-path="url(#pc1b48e7ba4)">
     <use style="fill:#d62728;" x="81.090536" xlink:href="#C0_0_86e9b57a86" y="260.034887"/>
    </g>
    <g clip-path="url(#pc1b48e7ba4)">
     <use style="fill:#d62728;" x="80.465091" xlink:href="#C0_0_86e9b57a86" y="262.084838"/>
    </g>
    <g clip-path="url(#pc1b48e7ba4)">
     <use style="fill:#d62728;" x="77.545965" xlink:href="#C0_0_86e9b57a86" y="251.394196"/>
    </g>
    <g clip-path="url(#pc1b48e7ba4)">
     <use style="fill:#d62728;" x="62.450845" xlink:href="#C0_0_86e9b57a86" y="228.555823"/>
    </g>
    <g clip-path="url(#pc1b48e7ba4)">
     <use style="fill:#d62728;" x="51.704778" xlink:href="#C0_0_86e9b57a86" y="244.115971"/>
    </g>
    <g clip-path="url(#pc1b48e7ba4)">
     <use style="fill:#2ca02c;" x="74.307111" xlink:href="#C0_0_86e9b57a86" y="231.031953"/>
    </g>
    <g clip-path="url(#pc1b48e7ba4)">
     <use style="fill:#2ca02c;" x="75.737597" xlink:href="#C0_0_86e9b57a86" y="223.225726"/>
    </g>
    <g clip-path="url(#pc1b48e7ba4)">
     <use style="fill:#2ca02c;" x="92.103797" xlink:href="#C0_0_86e9b57a86" y="237.957945"/>
    </g>
    <g clip-path="url(#pc1b48e7ba4)">
     <use style="fill:#2ca02c;" x="86.165867" xlink:href="#C0_0_86e9b57a86" y="225.931293"/>
    </g>
    <g clip-path="url(#pc1b48e7ba4)">
     <use style="fill:#2ca02c;" x="89.266502" xlink:href="#C0_0_86e9b57a86" y="212.556624"/>
    </g>
    <g clip-path="url(#pc1b48e7ba4)">
     <use style="fill:#2ca02c;" x="97.279922" xlink:href="#C0_0_86e9b57a86" y="225.491006"/>
    </g>
    <g clip-path="url(#pc1b48e7ba4)">
     <use style="fill:#2ca02c;" x="82.620883" xlink:href="#C0_0_86e9b57a86" y="232.742503"/>
    </g>
    <g clip-path="url(#pc1b48e7ba4)">
     <use style="fill:#2ca02c;" x="81.599342" xlink:href="#C0_0_86e9b57a86" y="217.531804"/>
    </g>
    <g clip-path="url(#pc1b48e7ba4)">
     <use style="fill:#2ca02c;" x="77.789121" xlink:href="#C0_0_86e9b57a86" y="227.739319"/>
    </g>
    <g clip-path="url(#pc1b48e7ba4)">
     <use style="fill:#2ca02c;" x="90.952161" xlink:href="#C0_0_86e9b57a86" y="228.330271"/>
    </g>
    <g clip-path="url(#pc1b48e7ba4)">
     <use style="fill:#2ca02c;" x="96.053323" xlink:href="#C0_0_86e9b57a86" y="218.485998"/>
    </g>
    <g clip-path="url(#pc1b48e7ba4)">
     <use style="fill:#2ca02c;" x="90.641983" xlink:href="#C0_0_86e9b57a86" y="217.804286"/>
    </g>
    <g clip-path="url(#pc1b48e7ba4)">
     <use style="fill:#2ca02c;" x="71.290751" xlink:href="#C0_0_86e9b57a86" y="224.847906"/>
    </g>
    <g clip-path="url(#pc1b48e7ba4)">
     <use style="fill:#2ca02c;" x="97.67282" xlink:href="#C0_0_86e9b57a86" y="229.600373"/>
    </g>
    <g clip-path="url(#pc1b48e7ba4)">
     <use style="fill:#2ca02c;" x="99.301394" xlink:href="#C0_0_86e9b57a86" y="222.15137"/>
    </g>
    <g clip-path="url(#pc1b48e7ba4)">
     <use style="fill:#2ca02c;" x="94.617896" xlink:href="#C0_0_86e9b57a86" y="220.294825"/>
    </g>
    <g clip-path="url(#pc1b48e7ba4)">
     <use style="fill:#2ca02c;" x="88.31723" xlink:href="#C0_0_86e9b57a86" y="224.608211"/>
    </g>
    <g clip-path="url(#pc1b48e7ba4)">
     <use style="fill:#2ca02c;" x="73.152804" xlink:href="#C0_0_86e9b57a86" y="217.894422"/>
    </g>
    <g clip-path="url(#pc1b48e7ba4)">
     <use style="fill:#2ca02c;" x="79.646213" xlink:href="#C0_0_86e9b57a86" y="219.873887"/>
    </g>
    <g clip-path="url(#pc1b48e7ba4)">
     <use style="fill:#2ca02c;" x="94.614218" xlink:href="#C0_0_86e9b57a86" y="228.225892"/>
    </g>
    <g clip-path="url(#pc1b48e7ba4)">
     <use style="fill:#2ca02c;" x="84.470713" xlink:href="#C0_0_86e9b57a86" y="209.782987"/>
    </g>
    <g clip-path="url(#pc1b48e7ba4)">
     <use style="fill:#2ca02c;" x="83.966712" xlink:href="#C0_0_86e9b57a86" y="216.712805"/>
    </g>
    <g clip-path="url(#pc1b48e7ba4)">
     <use style="fill:#2ca02c;" x="72.086773" xlink:href="#C0_0_86e9b57a86" y="228.981717"/>
    </g>
    <g clip-path="url(#pc1b48e7ba4)">
     <use style="fill:#2ca02c;" x="87.782337" xlink:href="#C0_0_86e9b57a86" y="221.373112"/>
    </g>
    <g clip-path="url(#pc1b48e7ba4)">
     <use style="fill:#2ca02c;" x="80.261844" xlink:href="#C0_0_86e9b57a86" y="213.089004"/>
    </g>
    <g clip-path="url(#pc1b48e7ba4)">
     <use style="fill:#2ca02c;" x="77.189549" xlink:href="#C0_0_86e9b57a86" y="211.804378"/>
    </g>
    <g clip-path="url(#pc1b48e7ba4)">
     <use style="fill:#2ca02c;" x="87.005881" xlink:href="#C0_0_86e9b57a86" y="224.801649"/>
    </g>
    <g clip-path="url(#pc1b48e7ba4)">
     <use style="fill:#2ca02c;" x="85.390295" xlink:href="#C0_0_86e9b57a86" y="233.158825"/>
    </g>
    <g clip-path="url(#pc1b48e7ba4)">
     <use style="fill:#2ca02c;" x="49.80775" xlink:href="#C0_0_86e9b57a86" y="236.623444"/>
    </g>
    <g clip-path="url(#pc1b48e7ba4)">
     <use style="fill:#2ca02c;" x="78.521933" xlink:href="#C0_0_86e9b57a86" y="231.520307"/>
    </g>
    <g clip-path="url(#pc1b48e7ba4)">
     <use style="fill:#2ca02c;" x="87.598404" xlink:href="#C0_0_86e9b57a86" y="216.32966"/>
    </g>
    <g clip-path="url(#pc1b48e7ba4)">
     <use style="fill:#2ca02c;" x="74.130305" xlink:href="#C0_0_86e9b57a86" y="213.20079"/>
    </g>
    <g clip-path="url(#pc1b48e7ba4)">
     <use style="fill:#2ca02c;" x="92.71497" xlink:href="#C0_0_86e9b57a86" y="230.621283"/>
    </g>
    <g clip-path="url(#pc1b48e7ba4)">
     <use style="fill:#2ca02c;" x="83.460692" xlink:href="#C0_0_86e9b57a86" y="223.808263"/>
    </g>
    <g clip-path="url(#pc1b48e7ba4)">
     <use style="fill:#2ca02c;" x="68.315672" xlink:href="#C0_0_86e9b57a86" y="228.770611"/>
    </g>
    <g clip-path="url(#pc1b48e7ba4)">
     <use style="fill:#2ca02c;" x="67.754135" xlink:href="#C0_0_86e9b57a86" y="226.567883"/>
    </g>
    <g clip-path="url(#pc1b48e7ba4)">
     <use style="fill:#2ca02c;" x="96.099219" xlink:href="#C0_0_86e9b57a86" y="230.867145"/>
    </g>
    <g clip-path="url(#pc1b48e7ba4)">
     <use style="fill:#2ca02c;" x="77.778627" xlink:href="#C0_0_86e9b57a86" y="219.549071"/>
    </g>
    <g clip-path="url(#pc1b48e7ba4)">
     <use style="fill:#2ca02c;" x="77.747635" xlink:href="#C0_0_86e9b57a86" y="210.73656"/>
    </g>
    <g clip-path="url(#pc1b48e7ba4)">
     <use style="fill:#2ca02c;" x="89.9677" xlink:href="#C0_0_86e9b57a86" y="224.929774"/>
    </g>
   </g>
   <g id="PathCollection_2"/>
   <g id="PathCollection_3"/>
   <g id="PathCollection_4"/>
   <g id="PathCollection_5"/>
   <g id="PathCollection_6"/>
   <g id="PathCollection_7"/>
   <g id="matplotlib.axis_1">
    <g id="text_1">
     <!-- UMAP1 -->
     <g transform="translate(181.848281 300.028562)scale(0.1 -0.1)">
      <defs>
       <path d="M 8.6875 72.90625 
L 18.609375 72.90625 
L 18.609375 28.609375 
Q 18.609375 16.890625 22.84375 11.734375 
Q 27.09375 6.59375 36.625 6.59375 
Q 46.09375 6.59375 50.34375 11.734375 
Q 54.59375 16.890625 54.59375 28.609375 
L 54.59375 72.90625 
L 64.5 72.90625 
L 64.5 27.390625 
Q 64.5 13.140625 57.4375 5.859375 
Q 50.390625 -1.421875 36.625 -1.421875 
Q 22.796875 -1.421875 15.734375 5.859375 
Q 8.6875 13.140625 8.6875 27.390625 
z
" id="DejaVuSans-85"/>
       <path d="M 9.8125 72.90625 
L 24.515625 72.90625 
L 43.109375 23.296875 
L 61.8125 72.90625 
L 76.515625 72.90625 
L 76.515625 0 
L 66.890625 0 
L 66.890625 64.015625 
L 48.09375 14.015625 
L 38.1875 14.015625 
L 19.390625 64.015625 
L 19.390625 0 
L 9.8125 0 
z
" id="DejaVuSans-77"/>
       <path d="M 34.1875 63.1875 
L 20.796875 26.90625 
L 47.609375 26.90625 
z
M 28.609375 72.90625 
L 39.796875 72.90625 
L 67.578125 0 
L 57.328125 0 
L 50.6875 18.703125 
L 17.828125 18.703125 
L 11.1875 0 
L 0.78125 0 
z
" id="DejaVuSans-65"/>
       <path d="M 19.671875 64.796875 
L 19.671875 37.40625 
L 32.078125 37.40625 
Q 38.96875 37.40625 42.71875 40.96875 
Q 46.484375 44.53125 46.484375 51.125 
Q 46.484375 57.671875 42.71875 61.234375 
Q 38.96875 64.796875 32.078125 64.796875 
z
M 9.8125 72.90625 
L 32.078125 72.90625 
Q 44.34375 72.90625 50.609375 67.359375 
Q 56.890625 61.8125 56.890625 51.125 
Q 56.890625 40.328125 50.609375 34.8125 
Q 44.34375 29.296875 32.078125 29.296875 
L 19.671875 29.296875 
L 19.671875 0 
L 9.8125 0 
z
" id="DejaVuSans-80"/>
       <path d="M 12.40625 8.296875 
L 28.515625 8.296875 
L 28.515625 63.921875 
L 10.984375 60.40625 
L 10.984375 69.390625 
L 28.421875 72.90625 
L 38.28125 72.90625 
L 38.28125 8.296875 
L 54.390625 8.296875 
L 54.390625 0 
L 12.40625 0 
z
" id="DejaVuSans-49"/>
      </defs>
      <use xlink:href="#DejaVuSans-85"/>
      <use x="73.193359" xlink:href="#DejaVuSans-77"/>
      <use x="159.472656" xlink:href="#DejaVuSans-65"/>
      <use x="227.880859" xlink:href="#DejaVuSans-80"/>
      <use x="288.183594" xlink:href="#DejaVuSans-49"/>
     </g>
    </g>
   </g>
   <g id="matplotlib.axis_2">
    <g id="text_2">
     <!-- UMAP2 -->
     <g transform="translate(14.798438 172.963969)rotate(-90)scale(0.1 -0.1)">
      <defs>
       <path d="M 19.1875 8.296875 
L 53.609375 8.296875 
L 53.609375 0 
L 7.328125 0 
L 7.328125 8.296875 
Q 12.9375 14.109375 22.625 23.890625 
Q 32.328125 33.6875 34.8125 36.53125 
Q 39.546875 41.84375 41.421875 45.53125 
Q 43.3125 49.21875 43.3125 52.78125 
Q 43.3125 58.59375 39.234375 62.25 
Q 35.15625 65.921875 28.609375 65.921875 
Q 23.96875 65.921875 18.8125 64.3125 
Q 13.671875 62.703125 7.8125 59.421875 
L 7.8125 69.390625 
Q 13.765625 71.78125 18.9375 73 
Q 24.125 74.21875 28.421875 74.21875 
Q 39.75 74.21875 46.484375 68.546875 
Q 53.21875 62.890625 53.21875 53.421875 
Q 53.21875 48.921875 51.53125 44.890625 
Q 49.859375 40.875 45.40625 35.40625 
Q 44.1875 33.984375 37.640625 27.21875 
Q 31.109375 20.453125 19.1875 8.296875 
z
" id="DejaVuSans-50"/>
      </defs>
      <use xlink:href="#DejaVuSans-85"/>
      <use x="73.193359" xlink:href="#DejaVuSans-77"/>
      <use x="159.472656" xlink:href="#DejaVuSans-65"/>
      <use x="227.880859" xlink:href="#DejaVuSans-80"/>
      <use x="288.183594" xlink:href="#DejaVuSans-50"/>
     </g>
    </g>
   </g>
   <g id="patch_3">
    <path d="M 20.878125 288.430125 
L 20.878125 22.318125 
" style="fill:none;stroke:#000000;stroke-linecap:square;stroke-linejoin:miter;stroke-width:0.8;"/>
   </g>
   <g id="patch_4">
    <path d="M 377.998125 288.430125 
L 377.998125 22.318125 
" style="fill:none;stroke:#000000;stroke-linecap:square;stroke-linejoin:miter;stroke-width:0.8;"/>
   </g>
   <g id="patch_5">
    <path d="M 20.878125 288.430125 
L 377.998125 288.430125 
" style="fill:none;stroke:#000000;stroke-linecap:square;stroke-linejoin:miter;stroke-width:0.8;"/>
   </g>
   <g id="patch_6">
    <path d="M 20.878125 22.318125 
L 377.998125 22.318125 
" style="fill:none;stroke:#000000;stroke-linecap:square;stroke-linejoin:miter;stroke-width:0.8;"/>
   </g>
   <g id="text_3">
    <!-- cell_type -->
    <g transform="translate(172.709063 16.318125)scale(0.12 -0.12)">
     <defs>
      <path d="M 48.78125 52.59375 
L 48.78125 44.1875 
Q 44.96875 46.296875 41.140625 47.34375 
Q 37.3125 48.390625 33.40625 48.390625 
Q 24.65625 48.390625 19.8125 42.84375 
Q 14.984375 37.3125 14.984375 27.296875 
Q 14.984375 17.28125 19.8125 11.734375 
Q 24.65625 6.203125 33.40625 6.203125 
Q 37.3125 6.203125 41.140625 7.25 
Q 44.96875 8.296875 48.78125 10.40625 
L 48.78125 2.09375 
Q 45.015625 0.34375 40.984375 -0.53125 
Q 36.96875 -1.421875 32.421875 -1.421875 
Q 20.0625 -1.421875 12.78125 6.34375 
Q 5.515625 14.109375 5.515625 27.296875 
Q 5.515625 40.671875 12.859375 48.328125 
Q 20.21875 56 33.015625 56 
Q 37.15625 56 41.109375 55.140625 
Q 45.0625 54.296875 48.78125 52.59375 
z
" id="DejaVuSans-99"/>
      <path d="M 56.203125 29.59375 
L 56.203125 25.203125 
L 14.890625 25.203125 
Q 15.484375 15.921875 20.484375 11.0625 
Q 25.484375 6.203125 34.421875 6.203125 
Q 39.59375 6.203125 44.453125 7.46875 
Q 49.3125 8.734375 54.109375 11.28125 
L 54.109375 2.78125 
Q 49.265625 0.734375 44.1875 -0.34375 
Q 39.109375 -1.421875 33.890625 -1.421875 
Q 20.796875 -1.421875 13.15625 6.1875 
Q 5.515625 13.8125 5.515625 26.8125 
Q 5.515625 40.234375 12.765625 48.109375 
Q 20.015625 56 32.328125 56 
Q 43.359375 56 49.78125 48.890625 
Q 56.203125 41.796875 56.203125 29.59375 
z
M 47.21875 32.234375 
Q 47.125 39.59375 43.09375 43.984375 
Q 39.0625 48.390625 32.421875 48.390625 
Q 24.90625 48.390625 20.390625 44.140625 
Q 15.875 39.890625 15.1875 32.171875 
z
" id="DejaVuSans-101"/>
      <path d="M 9.421875 75.984375 
L 18.40625 75.984375 
L 18.40625 0 
L 9.421875 0 
z
" id="DejaVuSans-108"/>
      <path d="M 50.984375 -16.609375 
L 50.984375 -23.578125 
L -0.984375 -23.578125 
L -0.984375 -16.609375 
z
" id="DejaVuSans-95"/>
      <path d="M 18.3125 70.21875 
L 18.3125 54.6875 
L 36.8125 54.6875 
L 36.8125 47.703125 
L 18.3125 47.703125 
L 18.3125 18.015625 
Q 18.3125 11.328125 20.140625 9.421875 
Q 21.96875 7.515625 27.59375 7.515625 
L 36.8125 7.515625 
L 36.8125 0 
L 27.59375 0 
Q 17.1875 0 13.234375 3.875 
Q 9.28125 7.765625 9.28125 18.015625 
L 9.28125 47.703125 
L 2.6875 47.703125 
L 2.6875 54.6875 
L 9.28125 54.6875 
L 9.28125 70.21875 
z
" id="DejaVuSans-116"/>
      <path d="M 32.171875 -5.078125 
Q 28.375 -14.84375 24.75 -17.8125 
Q 21.140625 -20.796875 15.09375 -20.796875 
L 7.90625 -20.796875 
L 7.90625 -13.28125 
L 13.1875 -13.28125 
Q 16.890625 -13.28125 18.9375 -11.515625 
Q 21 -9.765625 23.484375 -3.21875 
L 25.09375 0.875 
L 2.984375 54.6875 
L 12.5 54.6875 
L 29.59375 11.921875 
L 46.6875 54.6875 
L 56.203125 54.6875 
z
" id="DejaVuSans-121"/>
      <path d="M 18.109375 8.203125 
L 18.109375 -20.796875 
L 9.078125 -20.796875 
L 9.078125 54.6875 
L 18.109375 54.6875 
L 18.109375 46.390625 
Q 20.953125 51.265625 25.265625 53.625 
Q 29.59375 56 35.59375 56 
Q 45.5625 56 51.78125 48.09375 
Q 58.015625 40.1875 58.015625 27.296875 
Q 58.015625 14.40625 51.78125 6.484375 
Q 45.5625 -1.421875 35.59375 -1.421875 
Q 29.59375 -1.421875 25.265625 0.953125 
Q 20.953125 3.328125 18.109375 8.203125 
z
M 48.6875 27.296875 
Q 48.6875 37.203125 44.609375 42.84375 
Q 40.53125 48.484375 33.40625 48.484375 
Q 26.265625 48.484375 22.1875 42.84375 
Q 18.109375 37.203125 18.109375 27.296875 
Q 18.109375 17.390625 22.1875 11.75 
Q 26.265625 6.109375 33.40625 6.109375 
Q 40.53125 6.109375 44.609375 11.75 
Q 48.6875 17.390625 48.6875 27.296875 
z
" id="DejaVuSans-112"/>
     </defs>
     <use xlink:href="#DejaVuSans-99"/>
     <use x="54.980469" xlink:href="#DejaVuSans-101"/>
     <use x="116.503906" xlink:href="#DejaVuSans-108"/>
     <use x="144.287109" xlink:href="#DejaVuSans-108"/>
     <use x="172.070312" xlink:href="#DejaVuSans-95"/>
     <use x="222.070312" xlink:href="#DejaVuSans-116"/>
     <use x="261.279297" xlink:href="#DejaVuSans-121"/>
     <use x="320.458984" xlink:href="#DejaVuSans-112"/>
     <use x="383.935547" xlink:href="#DejaVuSans-101"/>
    </g>
   </g>
   <g id="legend_1">
    <g id="PathCollection_8">
     <defs>
      <path d="M 0 3 
C 0.795609 3 1.55874 2.683901 2.12132 2.12132 
C 2.683901 1.55874 3 0.795609 3 0 
C 3 -0.795609 2.683901 -1.55874 2.12132 -2.12132 
C 1.55874 -2.683901 0.795609 -3 0 -3 
C -0.795609 -3 -1.55874 -2.683901 -2.12132 -2.12132 
C -2.683901 -1.55874 -3 -0.795609 -3 0 
C -3 0.795609 -2.683901 1.55874 -2.12132 2.12132 
C -1.55874 2.683901 -0.795609 3 0 3 
z
" id="mcca15f2507" style="stroke:#1f77b4;"/>
     </defs>
     <g>
      <use style="fill:#1f77b4;stroke:#1f77b4;" x="396.998125" xlink:href="#mcca15f2507" y="118.256937"/>
     </g>
    </g>
    <g id="text_4">
     <!-- Microglia/Macrophage -->
     <g transform="translate(414.998125 120.881937)scale(0.1 -0.1)">
      <defs>
       <path d="M 9.421875 54.6875 
L 18.40625 54.6875 
L 18.40625 0 
L 9.421875 0 
z
M 9.421875 75.984375 
L 18.40625 75.984375 
L 18.40625 64.59375 
L 9.421875 64.59375 
z
" id="DejaVuSans-105"/>
       <path d="M 41.109375 46.296875 
Q 39.59375 47.171875 37.8125 47.578125 
Q 36.03125 48 33.890625 48 
Q 26.265625 48 22.1875 43.046875 
Q 18.109375 38.09375 18.109375 28.8125 
L 18.109375 0 
L 9.078125 0 
L 9.078125 54.6875 
L 18.109375 54.6875 
L 18.109375 46.1875 
Q 20.953125 51.171875 25.484375 53.578125 
Q 30.03125 56 36.53125 56 
Q 37.453125 56 38.578125 55.875 
Q 39.703125 55.765625 41.0625 55.515625 
z
" id="DejaVuSans-114"/>
       <path d="M 30.609375 48.390625 
Q 23.390625 48.390625 19.1875 42.75 
Q 14.984375 37.109375 14.984375 27.296875 
Q 14.984375 17.484375 19.15625 11.84375 
Q 23.34375 6.203125 30.609375 6.203125 
Q 37.796875 6.203125 41.984375 11.859375 
Q 46.1875 17.53125 46.1875 27.296875 
Q 46.1875 37.015625 41.984375 42.703125 
Q 37.796875 48.390625 30.609375 48.390625 
z
M 30.609375 56 
Q 42.328125 56 49.015625 48.375 
Q 55.71875 40.765625 55.71875 27.296875 
Q 55.71875 13.875 49.015625 6.21875 
Q 42.328125 -1.421875 30.609375 -1.421875 
Q 18.84375 -1.421875 12.171875 6.21875 
Q 5.515625 13.875 5.515625 27.296875 
Q 5.515625 40.765625 12.171875 48.375 
Q 18.84375 56 30.609375 56 
z
" id="DejaVuSans-111"/>
       <path d="M 45.40625 27.984375 
Q 45.40625 37.75 41.375 43.109375 
Q 37.359375 48.484375 30.078125 48.484375 
Q 22.859375 48.484375 18.828125 43.109375 
Q 14.796875 37.75 14.796875 27.984375 
Q 14.796875 18.265625 18.828125 12.890625 
Q 22.859375 7.515625 30.078125 7.515625 
Q 37.359375 7.515625 41.375 12.890625 
Q 45.40625 18.265625 45.40625 27.984375 
z
M 54.390625 6.78125 
Q 54.390625 -7.171875 48.1875 -13.984375 
Q 42 -20.796875 29.203125 -20.796875 
Q 24.46875 -20.796875 20.265625 -20.09375 
Q 16.0625 -19.390625 12.109375 -17.921875 
L 12.109375 -9.1875 
Q 16.0625 -11.328125 19.921875 -12.34375 
Q 23.78125 -13.375 27.78125 -13.375 
Q 36.625 -13.375 41.015625 -8.765625 
Q 45.40625 -4.15625 45.40625 5.171875 
L 45.40625 9.625 
Q 42.625 4.78125 38.28125 2.390625 
Q 33.9375 0 27.875 0 
Q 17.828125 0 11.671875 7.65625 
Q 5.515625 15.328125 5.515625 27.984375 
Q 5.515625 40.671875 11.671875 48.328125 
Q 17.828125 56 27.875 56 
Q 33.9375 56 38.28125 53.609375 
Q 42.625 51.21875 45.40625 46.390625 
L 45.40625 54.6875 
L 54.390625 54.6875 
z
" id="DejaVuSans-103"/>
       <path d="M 34.28125 27.484375 
Q 23.390625 27.484375 19.1875 25 
Q 14.984375 22.515625 14.984375 16.5 
Q 14.984375 11.71875 18.140625 8.90625 
Q 21.296875 6.109375 26.703125 6.109375 
Q 34.1875 6.109375 38.703125 11.40625 
Q 43.21875 16.703125 43.21875 25.484375 
L 43.21875 27.484375 
z
M 52.203125 31.203125 
L 52.203125 0 
L 43.21875 0 
L 43.21875 8.296875 
Q 40.140625 3.328125 35.546875 0.953125 
Q 30.953125 -1.421875 24.3125 -1.421875 
Q 15.921875 -1.421875 10.953125 3.296875 
Q 6 8.015625 6 15.921875 
Q 6 25.140625 12.171875 29.828125 
Q 18.359375 34.515625 30.609375 34.515625 
L 43.21875 34.515625 
L 43.21875 35.40625 
Q 43.21875 41.609375 39.140625 45 
Q 35.0625 48.390625 27.6875 48.390625 
Q 23 48.390625 18.546875 47.265625 
Q 14.109375 46.140625 10.015625 43.890625 
L 10.015625 52.203125 
Q 14.9375 54.109375 19.578125 55.046875 
Q 24.21875 56 28.609375 56 
Q 40.484375 56 46.34375 49.84375 
Q 52.203125 43.703125 52.203125 31.203125 
z
" id="DejaVuSans-97"/>
       <path d="M 25.390625 72.90625 
L 33.6875 72.90625 
L 8.296875 -9.28125 
L 0 -9.28125 
z
" id="DejaVuSans-47"/>
       <path d="M 54.890625 33.015625 
L 54.890625 0 
L 45.90625 0 
L 45.90625 32.71875 
Q 45.90625 40.484375 42.875 44.328125 
Q 39.84375 48.1875 33.796875 48.1875 
Q 26.515625 48.1875 22.3125 43.546875 
Q 18.109375 38.921875 18.109375 30.90625 
L 18.109375 0 
L 9.078125 0 
L 9.078125 75.984375 
L 18.109375 75.984375 
L 18.109375 46.1875 
Q 21.34375 51.125 25.703125 53.5625 
Q 30.078125 56 35.796875 56 
Q 45.21875 56 50.046875 50.171875 
Q 54.890625 44.34375 54.890625 33.015625 
z
" id="DejaVuSans-104"/>
      </defs>
      <use xlink:href="#DejaVuSans-77"/>
      <use x="86.279297" xlink:href="#DejaVuSans-105"/>
      <use x="114.0625" xlink:href="#DejaVuSans-99"/>
      <use x="169.042969" xlink:href="#DejaVuSans-114"/>
      <use x="207.90625" xlink:href="#DejaVuSans-111"/>
      <use x="269.087891" xlink:href="#DejaVuSans-103"/>
      <use x="332.564453" xlink:href="#DejaVuSans-108"/>
      <use x="360.347656" xlink:href="#DejaVuSans-105"/>
      <use x="388.130859" xlink:href="#DejaVuSans-97"/>
      <use x="449.410156" xlink:href="#DejaVuSans-47"/>
      <use x="483.101562" xlink:href="#DejaVuSans-77"/>
      <use x="569.380859" xlink:href="#DejaVuSans-97"/>
      <use x="630.660156" xlink:href="#DejaVuSans-99"/>
      <use x="685.640625" xlink:href="#DejaVuSans-114"/>
      <use x="724.503906" xlink:href="#DejaVuSans-111"/>
      <use x="785.685547" xlink:href="#DejaVuSans-112"/>
      <use x="849.162109" xlink:href="#DejaVuSans-104"/>
      <use x="912.541016" xlink:href="#DejaVuSans-97"/>
      <use x="973.820312" xlink:href="#DejaVuSans-103"/>
      <use x="1037.296875" xlink:href="#DejaVuSans-101"/>
     </g>
    </g>
    <g id="PathCollection_9">
     <defs>
      <path d="M 0 3 
C 0.795609 3 1.55874 2.683901 2.12132 2.12132 
C 2.683901 1.55874 3 0.795609 3 0 
C 3 -0.795609 2.683901 -1.55874 2.12132 -2.12132 
C 1.55874 -2.683901 0.795609 -3 0 -3 
C -0.795609 -3 -1.55874 -2.683901 -2.12132 -2.12132 
C -2.683901 -1.55874 -3 -0.795609 -3 0 
C -3 0.795609 -2.683901 1.55874 -2.12132 2.12132 
C -1.55874 2.683901 -0.795609 3 0 3 
z
" id="ma5cf40126b" style="stroke:#ff7f0e;"/>
     </defs>
     <g>
      <use style="fill:#ff7f0e;stroke:#ff7f0e;" x="396.998125" xlink:href="#ma5cf40126b" y="132.935062"/>
     </g>
    </g>
    <g id="text_5">
     <!-- Oligodendrocytes (non-malignant) -->
     <g transform="translate(414.998125 135.560062)scale(0.1 -0.1)">
      <defs>
       <path d="M 39.40625 66.21875 
Q 28.65625 66.21875 22.328125 58.203125 
Q 16.015625 50.203125 16.015625 36.375 
Q 16.015625 22.609375 22.328125 14.59375 
Q 28.65625 6.59375 39.40625 6.59375 
Q 50.140625 6.59375 56.421875 14.59375 
Q 62.703125 22.609375 62.703125 36.375 
Q 62.703125 50.203125 56.421875 58.203125 
Q 50.140625 66.21875 39.40625 66.21875 
z
M 39.40625 74.21875 
Q 54.734375 74.21875 63.90625 63.9375 
Q 73.09375 53.65625 73.09375 36.375 
Q 73.09375 19.140625 63.90625 8.859375 
Q 54.734375 -1.421875 39.40625 -1.421875 
Q 24.03125 -1.421875 14.8125 8.828125 
Q 5.609375 19.09375 5.609375 36.375 
Q 5.609375 53.65625 14.8125 63.9375 
Q 24.03125 74.21875 39.40625 74.21875 
z
" id="DejaVuSans-79"/>
       <path d="M 45.40625 46.390625 
L 45.40625 75.984375 
L 54.390625 75.984375 
L 54.390625 0 
L 45.40625 0 
L 45.40625 8.203125 
Q 42.578125 3.328125 38.25 0.953125 
Q 33.9375 -1.421875 27.875 -1.421875 
Q 17.96875 -1.421875 11.734375 6.484375 
Q 5.515625 14.40625 5.515625 27.296875 
Q 5.515625 40.1875 11.734375 48.09375 
Q 17.96875 56 27.875 56 
Q 33.9375 56 38.25 53.625 
Q 42.578125 51.265625 45.40625 46.390625 
z
M 14.796875 27.296875 
Q 14.796875 17.390625 18.875 11.75 
Q 22.953125 6.109375 30.078125 6.109375 
Q 37.203125 6.109375 41.296875 11.75 
Q 45.40625 17.390625 45.40625 27.296875 
Q 45.40625 37.203125 41.296875 42.84375 
Q 37.203125 48.484375 30.078125 48.484375 
Q 22.953125 48.484375 18.875 42.84375 
Q 14.796875 37.203125 14.796875 27.296875 
z
" id="DejaVuSans-100"/>
       <path d="M 54.890625 33.015625 
L 54.890625 0 
L 45.90625 0 
L 45.90625 32.71875 
Q 45.90625 40.484375 42.875 44.328125 
Q 39.84375 48.1875 33.796875 48.1875 
Q 26.515625 48.1875 22.3125 43.546875 
Q 18.109375 38.921875 18.109375 30.90625 
L 18.109375 0 
L 9.078125 0 
L 9.078125 54.6875 
L 18.109375 54.6875 
L 18.109375 46.1875 
Q 21.34375 51.125 25.703125 53.5625 
Q 30.078125 56 35.796875 56 
Q 45.21875 56 50.046875 50.171875 
Q 54.890625 44.34375 54.890625 33.015625 
z
" id="DejaVuSans-110"/>
       <path d="M 44.28125 53.078125 
L 44.28125 44.578125 
Q 40.484375 46.53125 36.375 47.5 
Q 32.28125 48.484375 27.875 48.484375 
Q 21.1875 48.484375 17.84375 46.4375 
Q 14.5 44.390625 14.5 40.28125 
Q 14.5 37.15625 16.890625 35.375 
Q 19.28125 33.59375 26.515625 31.984375 
L 29.59375 31.296875 
Q 39.15625 29.25 43.1875 25.515625 
Q 47.21875 21.78125 47.21875 15.09375 
Q 47.21875 7.46875 41.1875 3.015625 
Q 35.15625 -1.421875 24.609375 -1.421875 
Q 20.21875 -1.421875 15.453125 -0.5625 
Q 10.6875 0.296875 5.421875 2 
L 5.421875 11.28125 
Q 10.40625 8.6875 15.234375 7.390625 
Q 20.0625 6.109375 24.8125 6.109375 
Q 31.15625 6.109375 34.5625 8.28125 
Q 37.984375 10.453125 37.984375 14.40625 
Q 37.984375 18.0625 35.515625 20.015625 
Q 33.0625 21.96875 24.703125 23.78125 
L 21.578125 24.515625 
Q 13.234375 26.265625 9.515625 29.90625 
Q 5.8125 33.546875 5.8125 39.890625 
Q 5.8125 47.609375 11.28125 51.796875 
Q 16.75 56 26.8125 56 
Q 31.78125 56 36.171875 55.265625 
Q 40.578125 54.546875 44.28125 53.078125 
z
" id="DejaVuSans-115"/>
       <path id="DejaVuSans-32"/>
       <path d="M 31 75.875 
Q 24.46875 64.65625 21.28125 53.65625 
Q 18.109375 42.671875 18.109375 31.390625 
Q 18.109375 20.125 21.3125 9.0625 
Q 24.515625 -2 31 -13.1875 
L 23.1875 -13.1875 
Q 15.875 -1.703125 12.234375 9.375 
Q 8.59375 20.453125 8.59375 31.390625 
Q 8.59375 42.28125 12.203125 53.3125 
Q 15.828125 64.359375 23.1875 75.875 
z
" id="DejaVuSans-40"/>
       <path d="M 4.890625 31.390625 
L 31.203125 31.390625 
L 31.203125 23.390625 
L 4.890625 23.390625 
z
" id="DejaVuSans-45"/>
       <path d="M 52 44.1875 
Q 55.375 50.25 60.0625 53.125 
Q 64.75 56 71.09375 56 
Q 79.640625 56 84.28125 50.015625 
Q 88.921875 44.046875 88.921875 33.015625 
L 88.921875 0 
L 79.890625 0 
L 79.890625 32.71875 
Q 79.890625 40.578125 77.09375 44.375 
Q 74.3125 48.1875 68.609375 48.1875 
Q 61.625 48.1875 57.5625 43.546875 
Q 53.515625 38.921875 53.515625 30.90625 
L 53.515625 0 
L 44.484375 0 
L 44.484375 32.71875 
Q 44.484375 40.625 41.703125 44.40625 
Q 38.921875 48.1875 33.109375 48.1875 
Q 26.21875 48.1875 22.15625 43.53125 
Q 18.109375 38.875 18.109375 30.90625 
L 18.109375 0 
L 9.078125 0 
L 9.078125 54.6875 
L 18.109375 54.6875 
L 18.109375 46.1875 
Q 21.1875 51.21875 25.484375 53.609375 
Q 29.78125 56 35.6875 56 
Q 41.65625 56 45.828125 52.96875 
Q 50 49.953125 52 44.1875 
z
" id="DejaVuSans-109"/>
       <path d="M 8.015625 75.875 
L 15.828125 75.875 
Q 23.140625 64.359375 26.78125 53.3125 
Q 30.421875 42.28125 30.421875 31.390625 
Q 30.421875 20.453125 26.78125 9.375 
Q 23.140625 -1.703125 15.828125 -13.1875 
L 8.015625 -13.1875 
Q 14.5 -2 17.703125 9.0625 
Q 20.90625 20.125 20.90625 31.390625 
Q 20.90625 42.671875 17.703125 53.65625 
Q 14.5 64.65625 8.015625 75.875 
z
" id="DejaVuSans-41"/>
      </defs>
      <use xlink:href="#DejaVuSans-79"/>
      <use x="78.710938" xlink:href="#DejaVuSans-108"/>
      <use x="106.494141" xlink:href="#DejaVuSans-105"/>
      <use x="134.277344" xlink:href="#DejaVuSans-103"/>
      <use x="197.753906" xlink:href="#DejaVuSans-111"/>
      <use x="258.935547" xlink:href="#DejaVuSans-100"/>
      <use x="322.412109" xlink:href="#DejaVuSans-101"/>
      <use x="383.935547" xlink:href="#DejaVuSans-110"/>
      <use x="447.314453" xlink:href="#DejaVuSans-100"/>
      <use x="510.791016" xlink:href="#DejaVuSans-114"/>
      <use x="549.654297" xlink:href="#DejaVuSans-111"/>
      <use x="610.835938" xlink:href="#DejaVuSans-99"/>
      <use x="665.816406" xlink:href="#DejaVuSans-121"/>
      <use x="724.996094" xlink:href="#DejaVuSans-116"/>
      <use x="764.205078" xlink:href="#DejaVuSans-101"/>
      <use x="825.728516" xlink:href="#DejaVuSans-115"/>
      <use x="877.828125" xlink:href="#DejaVuSans-32"/>
      <use x="909.615234" xlink:href="#DejaVuSans-40"/>
      <use x="948.628906" xlink:href="#DejaVuSans-110"/>
      <use x="1012.007812" xlink:href="#DejaVuSans-111"/>
      <use x="1073.189453" xlink:href="#DejaVuSans-110"/>
      <use x="1136.568359" xlink:href="#DejaVuSans-45"/>
      <use x="1172.652344" xlink:href="#DejaVuSans-109"/>
      <use x="1270.064453" xlink:href="#DejaVuSans-97"/>
      <use x="1331.34375" xlink:href="#DejaVuSans-108"/>
      <use x="1359.126953" xlink:href="#DejaVuSans-105"/>
      <use x="1386.910156" xlink:href="#DejaVuSans-103"/>
      <use x="1450.386719" xlink:href="#DejaVuSans-110"/>
      <use x="1513.765625" xlink:href="#DejaVuSans-97"/>
      <use x="1575.044922" xlink:href="#DejaVuSans-110"/>
      <use x="1638.423828" xlink:href="#DejaVuSans-116"/>
      <use x="1677.632812" xlink:href="#DejaVuSans-41"/>
     </g>
    </g>
    <g id="PathCollection_10">
     <defs>
      <path d="M 0 3 
C 0.795609 3 1.55874 2.683901 2.12132 2.12132 
C 2.683901 1.55874 3 0.795609 3 0 
C 3 -0.795609 2.683901 -1.55874 2.12132 -2.12132 
C 1.55874 -2.683901 0.795609 -3 0 -3 
C -0.795609 -3 -1.55874 -2.683901 -2.12132 -2.12132 
C -2.683901 -1.55874 -3 -0.795609 -3 0 
C -3 0.795609 -2.683901 1.55874 -2.12132 2.12132 
C -1.55874 2.683901 -0.795609 3 0 3 
z
" id="m7ba88ab5c4" style="stroke:#2ca02c;"/>
     </defs>
     <g>
      <use style="fill:#2ca02c;stroke:#2ca02c;" x="396.998125" xlink:href="#m7ba88ab5c4" y="147.613187"/>
     </g>
    </g>
    <g id="text_6">
     <!-- malignant_93 -->
     <g transform="translate(414.998125 150.238187)scale(0.1 -0.1)">
      <defs>
       <path d="M 10.984375 1.515625 
L 10.984375 10.5 
Q 14.703125 8.734375 18.5 7.8125 
Q 22.3125 6.890625 25.984375 6.890625 
Q 35.75 6.890625 40.890625 13.453125 
Q 46.046875 20.015625 46.78125 33.40625 
Q 43.953125 29.203125 39.59375 26.953125 
Q 35.25 24.703125 29.984375 24.703125 
Q 19.046875 24.703125 12.671875 31.3125 
Q 6.296875 37.9375 6.296875 49.421875 
Q 6.296875 60.640625 12.9375 67.421875 
Q 19.578125 74.21875 30.609375 74.21875 
Q 43.265625 74.21875 49.921875 64.515625 
Q 56.59375 54.828125 56.59375 36.375 
Q 56.59375 19.140625 48.40625 8.859375 
Q 40.234375 -1.421875 26.421875 -1.421875 
Q 22.703125 -1.421875 18.890625 -0.6875 
Q 15.09375 0.046875 10.984375 1.515625 
z
M 30.609375 32.421875 
Q 37.25 32.421875 41.125 36.953125 
Q 45.015625 41.5 45.015625 49.421875 
Q 45.015625 57.28125 41.125 61.84375 
Q 37.25 66.40625 30.609375 66.40625 
Q 23.96875 66.40625 20.09375 61.84375 
Q 16.21875 57.28125 16.21875 49.421875 
Q 16.21875 41.5 20.09375 36.953125 
Q 23.96875 32.421875 30.609375 32.421875 
z
" id="DejaVuSans-57"/>
       <path d="M 40.578125 39.3125 
Q 47.65625 37.796875 51.625 33 
Q 55.609375 28.21875 55.609375 21.1875 
Q 55.609375 10.40625 48.1875 4.484375 
Q 40.765625 -1.421875 27.09375 -1.421875 
Q 22.515625 -1.421875 17.65625 -0.515625 
Q 12.796875 0.390625 7.625 2.203125 
L 7.625 11.71875 
Q 11.71875 9.328125 16.59375 8.109375 
Q 21.484375 6.890625 26.8125 6.890625 
Q 36.078125 6.890625 40.9375 10.546875 
Q 45.796875 14.203125 45.796875 21.1875 
Q 45.796875 27.640625 41.28125 31.265625 
Q 36.765625 34.90625 28.71875 34.90625 
L 20.21875 34.90625 
L 20.21875 43.015625 
L 29.109375 43.015625 
Q 36.375 43.015625 40.234375 45.921875 
Q 44.09375 48.828125 44.09375 54.296875 
Q 44.09375 59.90625 40.109375 62.90625 
Q 36.140625 65.921875 28.71875 65.921875 
Q 24.65625 65.921875 20.015625 65.03125 
Q 15.375 64.15625 9.8125 62.3125 
L 9.8125 71.09375 
Q 15.4375 72.65625 20.34375 73.4375 
Q 25.25 74.21875 29.59375 74.21875 
Q 40.828125 74.21875 47.359375 69.109375 
Q 53.90625 64.015625 53.90625 55.328125 
Q 53.90625 49.265625 50.4375 45.09375 
Q 46.96875 40.921875 40.578125 39.3125 
z
" id="DejaVuSans-51"/>
      </defs>
      <use xlink:href="#DejaVuSans-109"/>
      <use x="97.412109" xlink:href="#DejaVuSans-97"/>
      <use x="158.691406" xlink:href="#DejaVuSans-108"/>
      <use x="186.474609" xlink:href="#DejaVuSans-105"/>
      <use x="214.257812" xlink:href="#DejaVuSans-103"/>
      <use x="277.734375" xlink:href="#DejaVuSans-110"/>
      <use x="341.113281" xlink:href="#DejaVuSans-97"/>
      <use x="402.392578" xlink:href="#DejaVuSans-110"/>
      <use x="465.771484" xlink:href="#DejaVuSans-116"/>
      <use x="504.980469" xlink:href="#DejaVuSans-95"/>
      <use x="554.980469" xlink:href="#DejaVuSans-57"/>
      <use x="618.603516" xlink:href="#DejaVuSans-51"/>
     </g>
    </g>
    <g id="PathCollection_11">
     <defs>
      <path d="M 0 3 
C 0.795609 3 1.55874 2.683901 2.12132 2.12132 
C 2.683901 1.55874 3 0.795609 3 0 
C 3 -0.795609 2.683901 -1.55874 2.12132 -2.12132 
C 1.55874 -2.683901 0.795609 -3 0 -3 
C -0.795609 -3 -1.55874 -2.683901 -2.12132 -2.12132 
C -2.683901 -1.55874 -3 -0.795609 -3 0 
C -3 0.795609 -2.683901 1.55874 -2.12132 2.12132 
C -1.55874 2.683901 -0.795609 3 0 3 
z
" id="m72a63f9ff2" style="stroke:#d62728;"/>
     </defs>
     <g>
      <use style="fill:#d62728;stroke:#d62728;" x="396.998125" xlink:href="#m72a63f9ff2" y="162.569437"/>
     </g>
    </g>
    <g id="text_7">
     <!-- malignant_97 -->
     <g transform="translate(414.998125 165.194437)scale(0.1 -0.1)">
      <defs>
       <path d="M 8.203125 72.90625 
L 55.078125 72.90625 
L 55.078125 68.703125 
L 28.609375 0 
L 18.3125 0 
L 43.21875 64.59375 
L 8.203125 64.59375 
z
" id="DejaVuSans-55"/>
      </defs>
      <use xlink:href="#DejaVuSans-109"/>
      <use x="97.412109" xlink:href="#DejaVuSans-97"/>
      <use x="158.691406" xlink:href="#DejaVuSans-108"/>
      <use x="186.474609" xlink:href="#DejaVuSans-105"/>
      <use x="214.257812" xlink:href="#DejaVuSans-103"/>
      <use x="277.734375" xlink:href="#DejaVuSans-110"/>
      <use x="341.113281" xlink:href="#DejaVuSans-97"/>
      <use x="402.392578" xlink:href="#DejaVuSans-110"/>
      <use x="465.771484" xlink:href="#DejaVuSans-116"/>
      <use x="504.980469" xlink:href="#DejaVuSans-95"/>
      <use x="554.980469" xlink:href="#DejaVuSans-57"/>
      <use x="618.603516" xlink:href="#DejaVuSans-55"/>
     </g>
    </g>
    <g id="PathCollection_12">
     <defs>
      <path d="M 0 3 
C 0.795609 3 1.55874 2.683901 2.12132 2.12132 
C 2.683901 1.55874 3 0.795609 3 0 
C 3 -0.795609 2.683901 -1.55874 2.12132 -2.12132 
C 1.55874 -2.683901 0.795609 -3 0 -3 
C -0.795609 -3 -1.55874 -2.683901 -2.12132 -2.12132 
C -2.683901 -1.55874 -3 -0.795609 -3 0 
C -3 0.795609 -2.683901 1.55874 -2.12132 2.12132 
C -1.55874 2.683901 -0.795609 3 0 3 
z
" id="m11b01d23e9" style="stroke:#9467bd;"/>
     </defs>
     <g>
      <use style="fill:#9467bd;stroke:#9467bd;" x="396.998125" xlink:href="#m11b01d23e9" y="177.525687"/>
     </g>
    </g>
    <g id="text_8">
     <!-- malignant_MGH36 -->
     <g transform="translate(414.998125 180.150687)scale(0.1 -0.1)">
      <defs>
       <path d="M 59.515625 10.40625 
L 59.515625 29.984375 
L 43.40625 29.984375 
L 43.40625 38.09375 
L 69.28125 38.09375 
L 69.28125 6.78125 
Q 63.578125 2.734375 56.6875 0.65625 
Q 49.8125 -1.421875 42 -1.421875 
Q 24.90625 -1.421875 15.25 8.5625 
Q 5.609375 18.5625 5.609375 36.375 
Q 5.609375 54.25 15.25 64.234375 
Q 24.90625 74.21875 42 74.21875 
Q 49.125 74.21875 55.546875 72.453125 
Q 61.96875 70.703125 67.390625 67.28125 
L 67.390625 56.78125 
Q 61.921875 61.421875 55.765625 63.765625 
Q 49.609375 66.109375 42.828125 66.109375 
Q 29.4375 66.109375 22.71875 58.640625 
Q 16.015625 51.171875 16.015625 36.375 
Q 16.015625 21.625 22.71875 14.15625 
Q 29.4375 6.6875 42.828125 6.6875 
Q 48.046875 6.6875 52.140625 7.59375 
Q 56.25 8.5 59.515625 10.40625 
z
" id="DejaVuSans-71"/>
       <path d="M 9.8125 72.90625 
L 19.671875 72.90625 
L 19.671875 43.015625 
L 55.515625 43.015625 
L 55.515625 72.90625 
L 65.375 72.90625 
L 65.375 0 
L 55.515625 0 
L 55.515625 34.71875 
L 19.671875 34.71875 
L 19.671875 0 
L 9.8125 0 
z
" id="DejaVuSans-72"/>
       <path d="M 33.015625 40.375 
Q 26.375 40.375 22.484375 35.828125 
Q 18.609375 31.296875 18.609375 23.390625 
Q 18.609375 15.53125 22.484375 10.953125 
Q 26.375 6.390625 33.015625 6.390625 
Q 39.65625 6.390625 43.53125 10.953125 
Q 47.40625 15.53125 47.40625 23.390625 
Q 47.40625 31.296875 43.53125 35.828125 
Q 39.65625 40.375 33.015625 40.375 
z
M 52.59375 71.296875 
L 52.59375 62.3125 
Q 48.875 64.0625 45.09375 64.984375 
Q 41.3125 65.921875 37.59375 65.921875 
Q 27.828125 65.921875 22.671875 59.328125 
Q 17.53125 52.734375 16.796875 39.40625 
Q 19.671875 43.65625 24.015625 45.921875 
Q 28.375 48.1875 33.59375 48.1875 
Q 44.578125 48.1875 50.953125 41.515625 
Q 57.328125 34.859375 57.328125 23.390625 
Q 57.328125 12.15625 50.6875 5.359375 
Q 44.046875 -1.421875 33.015625 -1.421875 
Q 20.359375 -1.421875 13.671875 8.265625 
Q 6.984375 17.96875 6.984375 36.375 
Q 6.984375 53.65625 15.1875 63.9375 
Q 23.390625 74.21875 37.203125 74.21875 
Q 40.921875 74.21875 44.703125 73.484375 
Q 48.484375 72.75 52.59375 71.296875 
z
" id="DejaVuSans-54"/>
      </defs>
      <use xlink:href="#DejaVuSans-109"/>
      <use x="97.412109" xlink:href="#DejaVuSans-97"/>
      <use x="158.691406" xlink:href="#DejaVuSans-108"/>
      <use x="186.474609" xlink:href="#DejaVuSans-105"/>
      <use x="214.257812" xlink:href="#DejaVuSans-103"/>
      <use x="277.734375" xlink:href="#DejaVuSans-110"/>
      <use x="341.113281" xlink:href="#DejaVuSans-97"/>
      <use x="402.392578" xlink:href="#DejaVuSans-110"/>
      <use x="465.771484" xlink:href="#DejaVuSans-116"/>
      <use x="504.980469" xlink:href="#DejaVuSans-95"/>
      <use x="554.980469" xlink:href="#DejaVuSans-77"/>
      <use x="641.259766" xlink:href="#DejaVuSans-71"/>
      <use x="718.75" xlink:href="#DejaVuSans-72"/>
      <use x="793.945312" xlink:href="#DejaVuSans-51"/>
      <use x="857.568359" xlink:href="#DejaVuSans-54"/>
     </g>
    </g>
    <g id="PathCollection_13">
     <defs>
      <path d="M 0 3 
C 0.795609 3 1.55874 2.683901 2.12132 2.12132 
C 2.683901 1.55874 3 0.795609 3 0 
C 3 -0.795609 2.683901 -1.55874 2.12132 -2.12132 
C 1.55874 -2.683901 0.795609 -3 0 -3 
C -0.795609 -3 -1.55874 -2.683901 -2.12132 -2.12132 
C -2.683901 -1.55874 -3 -0.795609 -3 0 
C -3 0.795609 -2.683901 1.55874 -2.12132 2.12132 
C -1.55874 2.683901 -0.795609 3 0 3 
z
" id="m21f40346e5" style="stroke:#8c564b;"/>
     </defs>
     <g>
      <use style="fill:#8c564b;stroke:#8c564b;" x="396.998125" xlink:href="#m21f40346e5" y="192.481937"/>
     </g>
    </g>
    <g id="text_9">
     <!-- malignant_MGH53 -->
     <g transform="translate(414.998125 195.106937)scale(0.1 -0.1)">
      <defs>
       <path d="M 10.796875 72.90625 
L 49.515625 72.90625 
L 49.515625 64.59375 
L 19.828125 64.59375 
L 19.828125 46.734375 
Q 21.96875 47.46875 24.109375 47.828125 
Q 26.265625 48.1875 28.421875 48.1875 
Q 40.625 48.1875 47.75 41.5 
Q 54.890625 34.8125 54.890625 23.390625 
Q 54.890625 11.625 47.5625 5.09375 
Q 40.234375 -1.421875 26.90625 -1.421875 
Q 22.3125 -1.421875 17.546875 -0.640625 
Q 12.796875 0.140625 7.71875 1.703125 
L 7.71875 11.625 
Q 12.109375 9.234375 16.796875 8.0625 
Q 21.484375 6.890625 26.703125 6.890625 
Q 35.15625 6.890625 40.078125 11.328125 
Q 45.015625 15.765625 45.015625 23.390625 
Q 45.015625 31 40.078125 35.4375 
Q 35.15625 39.890625 26.703125 39.890625 
Q 22.75 39.890625 18.8125 39.015625 
Q 14.890625 38.140625 10.796875 36.28125 
z
" id="DejaVuSans-53"/>
      </defs>
      <use xlink:href="#DejaVuSans-109"/>
      <use x="97.412109" xlink:href="#DejaVuSans-97"/>
      <use x="158.691406" xlink:href="#DejaVuSans-108"/>
      <use x="186.474609" xlink:href="#DejaVuSans-105"/>
      <use x="214.257812" xlink:href="#DejaVuSans-103"/>
      <use x="277.734375" xlink:href="#DejaVuSans-110"/>
      <use x="341.113281" xlink:href="#DejaVuSans-97"/>
      <use x="402.392578" xlink:href="#DejaVuSans-110"/>
      <use x="465.771484" xlink:href="#DejaVuSans-116"/>
      <use x="504.980469" xlink:href="#DejaVuSans-95"/>
      <use x="554.980469" xlink:href="#DejaVuSans-77"/>
      <use x="641.259766" xlink:href="#DejaVuSans-71"/>
      <use x="718.75" xlink:href="#DejaVuSans-72"/>
      <use x="793.945312" xlink:href="#DejaVuSans-53"/>
      <use x="857.568359" xlink:href="#DejaVuSans-51"/>
     </g>
    </g>
   </g>
  </g>
 </g>
 <defs>
  <clipPath id="pc1b48e7ba4">
   <rect height="266.112" width="357.12" x="20.878125" y="22.318125"/>
  </clipPath>
 </defs>
</svg>
